<svg width="98" height="35" viewBox="0 0 98 35" fill="none" xmlns="http://www.w3.org/2000/svg">
<path fill-rule="evenodd" clip-rule="evenodd" d="M13 35C11.2928 35 9.60238 34.612 8.02512 33.8582C6.44792 33.1044 5.0148 31.9995 3.80761 30.6066C2.60047 29.2137 1.64289 27.5602 0.989566 25.7403C0.336257 23.9204 0 21.9698 0 20C0 14.6957 2.10714 9.60859 5.85787 5.85786C9.60859 2.10714 14.6957 0 20 0C25.3043 0 30.3914 2.10714 34.1421 5.85786C37.8929 9.60859 40 14.6957 40 20C40 21.9698 39.6637 23.9204 39.0104 25.7403C38.3571 27.5602 37.3995 29.2137 36.1924 30.6066C34.9852 31.9995 33.5521 33.1044 31.9749 33.8582C30.3976 34.612 28.7072 35 27 35H13ZM8.68629 8.68629C11.6869 5.68571 15.7565 4 20 4C24.2435 4 28.3131 5.68571 31.3137 8.68629C34.3143 11.6869 36 15.7565 36 20C36 21.5179 35.7404 23.0107 35.2457 24.3888C34.751 25.7668 34.0376 26.9854 33.1696 27.9869C32.3026 28.9873 31.3045 29.7452 30.25 30.2492C29.1981 30.752 28.0957 31 27 31H13C11.9043 31 10.8019 30.752 9.74999 30.2492C8.69549 29.7452 7.6974 28.9873 6.83037 27.9869C5.96242 26.9854 5.24903 25.7668 4.75433 24.3888C4.25961 23.0107 4 21.5179 4 20C4 15.7565 5.68571 11.6869 8.68629 8.68629Z" fill="#EE6352"/>
<path fill-rule="evenodd" clip-rule="evenodd" d="M25 30C26.3132 30 27.6136 29.7413 28.8268 29.2388C30.0401 28.7362 31.1425 27.9997 32.0711 27.0711C32.9997 26.1425 33.7362 25.0401 34.2388 23.8268C34.7413 22.6136 35 21.3132 35 20C35 16.0218 33.4196 12.2064 30.6066 9.3934C27.7936 6.58035 23.9782 5 20 5C16.0218 5 12.2064 6.58035 9.3934 9.3934C6.58035 12.2064 5 16.0218 5 20C5 21.3132 5.25866 22.6136 5.7612 23.8268C6.26375 25.0401 7.00035 26.1425 7.92893 27.0711C8.85752 27.9997 9.95991 28.7362 11.1732 29.2388C12.3864 29.7413 13.6868 30 15 30H25ZM20 9C17.0826 9 14.2847 10.1589 12.2218 12.2218C10.1589 14.2847 9 17.0826 9 20C9 20.7879 9.15519 21.5681 9.45672 22.2961C9.75825 23.0241 10.2002 23.6855 10.7574 24.2426C11.3145 24.7998 11.9759 25.2417 12.7039 25.5433C13.4319 25.8448 14.2121 26 15 26H25C25.7879 26 26.5681 25.8448 27.2961 25.5433C28.0241 25.2417 28.6855 24.7998 29.2426 24.2426C29.7998 23.6855 30.2417 23.0241 30.5433 22.2961C30.8448 21.5681 31 20.7879 31 20C31 17.0826 29.8411 14.2847 27.7782 12.2218C25.7153 10.1589 22.9174 9 20 9Z" fill="#F29C33"/>
<path opacity="0.4" d="M25 25H19.9956C19.6596 24.9997 19.3261 24.9655 19 24.899C18.368 24.77 17.7637 24.5192 17.2222 24.1573C16.3999 23.6079 15.759 22.8271 15.3806 21.9134C15.2579 21.6171 15.1645 21.3112 15.101 21C14.9686 20.3515 14.9657 19.6799 15.0961 19.0245C15.289 18.0546 15.7652 17.1637 16.4645 16.4645C17.1637 15.7652 18.0546 15.289 19.0245 15.0961C19.0549 15.09 19.0852 15.0843 19.1156 15.0788C19.4087 15.0262 19.7047 15 20 15C20.6535 15 21.3038 15.1281 21.9134 15.3806C22.827 15.759 23.6079 16.3999 24.1573 17.2221C24.7068 18.0444 25 19.0111 25 20H21C21 19.8022 20.9414 19.6089 20.8315 19.4444C20.7216 19.28 20.5654 19.1518 20.3827 19.0761C20.2 19.0004 19.9989 18.9806 19.8049 19.0192C19.6109 19.0578 19.4327 19.153 19.2929 19.2929C19.153 19.4327 19.0578 19.6109 19.0192 19.8049C18.9806 19.9989 19.0004 20.2 19.0761 20.3827C19.1518 20.5654 19.28 20.7216 19.4444 20.8315C19.6089 20.9414 19.8022 21 20 21H25C25.1313 21 25.2614 20.9741 25.3827 20.9239C25.504 20.8736 25.6142 20.8 25.7071 20.7071C25.8 20.6142 25.8736 20.504 25.9239 20.3827C25.9741 20.2614 26 20.1313 26 20C26 18.4087 25.3679 16.8826 24.2426 15.7574C23.1174 14.6321 21.5913 14 20 14C19.8274 14 19.6556 14.0074 19.485 14.0221C19.0657 14.0582 18.6535 14.1382 18.255 14.2594C17.8629 14.3785 17.484 14.5376 17.1243 14.734C16.7123 14.959 16.3255 15.233 15.973 15.5522C15.8996 15.6186 15.8277 15.687 15.7574 15.7574C15.2651 16.2496 14.8672 16.8187 14.5753 17.4363C14.4294 17.7451 14.3099 18.066 14.2185 18.3956C14.1139 18.7724 14.0459 19.1604 14.0166 19.5544C14.0056 19.7022 14 19.8508 14 20C14 20.7841 14.1537 21.5646 14.4567 22.2961C14.9109 23.3925 15.6799 24.3295 16.6666 24.9888C16.6722 24.9926 16.6778 24.9963 16.6834 25H15C14.3434 25 13.6932 24.8707 13.0866 24.6194C12.48 24.3681 11.9288 23.9998 11.4645 23.5355C11.0002 23.0712 10.6319 22.52 10.3806 21.9134C10.1293 21.3068 10 20.6566 10 20C10 17.3478 11.0536 14.8043 12.9289 12.9289C14.8043 11.0536 17.3478 10 20 10C22.6522 10 25.1957 11.0536 27.0711 12.9289C28.9464 14.8043 30 17.3478 30 20C30 20.6566 29.8707 21.3068 29.6194 21.9134C29.3681 22.52 28.9998 23.0712 28.5355 23.5355C28.0712 23.9998 27.52 24.3681 26.9134 24.6194C26.3068 24.8707 25.6566 25 25 25Z" fill="#F29C33"/>
<path d="M54.6582 11.6982H56.7021C56.6611 12.3682 56.4766 12.9629 56.1484 13.4824C55.8249 14.002 55.3714 14.4076 54.7881 14.6992C54.2093 14.9909 53.512 15.1367 52.6963 15.1367C52.0583 15.1367 51.4863 15.0273 50.9805 14.8086C50.4746 14.5853 50.0417 14.2663 49.6816 13.8516C49.3262 13.4368 49.055 12.9355 48.8682 12.3477C48.6813 11.7598 48.5879 11.1012 48.5879 10.3721V9.68164C48.5879 8.95247 48.6836 8.29395 48.875 7.70605C49.071 7.11361 49.349 6.61003 49.709 6.19531C50.0736 5.7806 50.5088 5.46159 51.0146 5.23828C51.5205 5.01497 52.0856 4.90332 52.71 4.90332C53.5394 4.90332 54.2389 5.05371 54.8086 5.35449C55.3828 5.65527 55.8271 6.06999 56.1416 6.59863C56.4606 7.12728 56.652 7.72884 56.7158 8.40332H54.665C54.6423 8.00228 54.5625 7.66276 54.4258 7.38477C54.2891 7.10221 54.0817 6.8903 53.8037 6.74902C53.5303 6.60319 53.1657 6.53027 52.71 6.53027C52.3682 6.53027 52.0697 6.59408 51.8145 6.72168C51.5592 6.84928 51.3451 7.04297 51.1719 7.30273C50.9987 7.5625 50.8688 7.89062 50.7822 8.28711C50.7002 8.67904 50.6592 9.13932 50.6592 9.66797V10.3721C50.6592 10.887 50.6979 11.3405 50.7754 11.7324C50.8529 12.1198 50.9714 12.4479 51.1309 12.7168C51.2949 12.9811 51.5046 13.1816 51.7598 13.3184C52.0195 13.4505 52.3317 13.5166 52.6963 13.5166C53.1247 13.5166 53.4779 13.4482 53.7559 13.3115C54.0339 13.1748 54.2458 12.972 54.3916 12.7031C54.542 12.4342 54.6309 12.0993 54.6582 11.6982ZM57.6113 11.377V11.2334C57.6113 10.6911 57.6888 10.1921 57.8438 9.73633C57.9987 9.27604 58.2243 8.87728 58.5205 8.54004C58.8167 8.2028 59.1813 7.94076 59.6143 7.75391C60.0472 7.5625 60.5439 7.4668 61.1045 7.4668C61.665 7.4668 62.1641 7.5625 62.6016 7.75391C63.0391 7.94076 63.4059 8.2028 63.7021 8.54004C64.0029 8.87728 64.2308 9.27604 64.3857 9.73633C64.5407 10.1921 64.6182 10.6911 64.6182 11.2334V11.377C64.6182 11.9147 64.5407 12.4137 64.3857 12.874C64.2308 13.3298 64.0029 13.7285 63.7021 14.0703C63.4059 14.4076 63.0413 14.6696 62.6084 14.8564C62.1755 15.0433 61.6787 15.1367 61.1182 15.1367C60.5576 15.1367 60.0586 15.0433 59.6211 14.8564C59.1882 14.6696 58.8213 14.4076 58.5205 14.0703C58.2243 13.7285 57.9987 13.3298 57.8438 12.874C57.6888 12.4137 57.6113 11.9147 57.6113 11.377ZM59.5801 11.2334V11.377C59.5801 11.6868 59.6074 11.9762 59.6621 12.2451C59.7168 12.514 59.8034 12.751 59.9219 12.9561C60.0449 13.1566 60.2044 13.3138 60.4004 13.4277C60.5964 13.5417 60.8356 13.5986 61.1182 13.5986C61.3916 13.5986 61.6263 13.5417 61.8223 13.4277C62.0182 13.3138 62.1755 13.1566 62.2939 12.9561C62.4124 12.751 62.499 12.514 62.5537 12.2451C62.613 11.9762 62.6426 11.6868 62.6426 11.377V11.2334C62.6426 10.9326 62.613 10.6501 62.5537 10.3857C62.499 10.1169 62.4102 9.87988 62.2871 9.6748C62.1686 9.46517 62.0114 9.30111 61.8154 9.18262C61.6195 9.06413 61.3825 9.00488 61.1045 9.00488C60.8265 9.00488 60.5895 9.06413 60.3936 9.18262C60.2021 9.30111 60.0449 9.46517 59.9219 9.6748C59.8034 9.87988 59.7168 10.1169 59.6621 10.3857C59.6074 10.6501 59.5801 10.9326 59.5801 11.2334ZM65.5137 11.377V11.2334C65.5137 10.6911 65.5911 10.1921 65.7461 9.73633C65.901 9.27604 66.1266 8.87728 66.4229 8.54004C66.7191 8.2028 67.0837 7.94076 67.5166 7.75391C67.9495 7.5625 68.4463 7.4668 69.0068 7.4668C69.5674 7.4668 70.0664 7.5625 70.5039 7.75391C70.9414 7.94076 71.3083 8.2028 71.6045 8.54004C71.9053 8.87728 72.1331 9.27604 72.2881 9.73633C72.443 10.1921 72.5205 10.6911 72.5205 11.2334V11.377C72.5205 11.9147 72.443 12.4137 72.2881 12.874C72.1331 13.3298 71.9053 13.7285 71.6045 14.0703C71.3083 14.4076 70.9437 14.6696 70.5107 14.8564C70.0778 15.0433 69.5811 15.1367 69.0205 15.1367C68.46 15.1367 67.9609 15.0433 67.5234 14.8564C67.0905 14.6696 66.7236 14.4076 66.4229 14.0703C66.1266 13.7285 65.901 13.3298 65.7461 12.874C65.5911 12.4137 65.5137 11.9147 65.5137 11.377ZM67.4824 11.2334V11.377C67.4824 11.6868 67.5098 11.9762 67.5645 12.2451C67.6191 12.514 67.7057 12.751 67.8242 12.9561C67.9473 13.1566 68.1068 13.3138 68.3027 13.4277C68.4987 13.5417 68.738 13.5986 69.0205 13.5986C69.2939 13.5986 69.5286 13.5417 69.7246 13.4277C69.9206 13.3138 70.0778 13.1566 70.1963 12.9561C70.3148 12.751 70.4014 12.514 70.4561 12.2451C70.5153 11.9762 70.5449 11.6868 70.5449 11.377V11.2334C70.5449 10.9326 70.5153 10.6501 70.4561 10.3857C70.4014 10.1169 70.3125 9.87988 70.1895 9.6748C70.071 9.46517 69.9137 9.30111 69.7178 9.18262C69.5218 9.06413 69.2848 9.00488 69.0068 9.00488C68.7288 9.00488 68.4919 9.06413 68.2959 9.18262C68.1045 9.30111 67.9473 9.46517 67.8242 9.6748C67.7057 9.87988 67.6191 10.1169 67.5645 10.3857C67.5098 10.6501 67.4824 10.9326 67.4824 11.2334ZM75.6992 4.49316V15H73.7305V4.49316H75.6992ZM80.3613 7.60352L77.1484 11.2676L75.4258 13.0107L74.708 11.5889L76.0752 9.85254L77.9961 7.60352H80.3613ZM78.3174 15L76.1299 11.582L77.4902 10.3926L80.5869 15H78.3174ZM85.208 12.9561C85.208 12.8148 85.167 12.6872 85.085 12.5732C85.0029 12.4593 84.8503 12.3545 84.627 12.2588C84.4082 12.1585 84.0915 12.0674 83.6768 11.9854C83.3031 11.9033 82.9544 11.8008 82.6309 11.6777C82.3118 11.5501 82.0339 11.3975 81.7969 11.2197C81.5645 11.042 81.3822 10.8324 81.25 10.5908C81.1178 10.3447 81.0518 10.0645 81.0518 9.75C81.0518 9.4401 81.1178 9.14844 81.25 8.875C81.3867 8.60156 81.5804 8.36003 81.8311 8.15039C82.0863 7.9362 82.3962 7.76986 82.7607 7.65137C83.1299 7.52832 83.5446 7.4668 84.0049 7.4668C84.6475 7.4668 85.1989 7.56934 85.6592 7.77441C86.124 7.97949 86.4795 8.26204 86.7256 8.62207C86.9762 8.97754 87.1016 9.38314 87.1016 9.83887H85.1328C85.1328 9.64746 85.0918 9.47656 85.0098 9.32617C84.9323 9.17122 84.8092 9.05046 84.6406 8.96387C84.4766 8.87272 84.2624 8.82715 83.998 8.82715C83.7793 8.82715 83.5902 8.86589 83.4307 8.94336C83.2712 9.01628 83.1481 9.11654 83.0615 9.24414C82.9795 9.36719 82.9385 9.50391 82.9385 9.6543C82.9385 9.76823 82.9613 9.87077 83.0068 9.96191C83.057 10.0485 83.1367 10.1283 83.2461 10.2012C83.3555 10.2741 83.4967 10.3424 83.6699 10.4062C83.8477 10.4655 84.0664 10.5202 84.3262 10.5703C84.8594 10.6797 85.3356 10.8232 85.7549 11.001C86.1742 11.1742 86.5068 11.4111 86.7529 11.7119C86.999 12.0081 87.1221 12.3978 87.1221 12.8809C87.1221 13.209 87.0492 13.5098 86.9033 13.7832C86.7575 14.0566 86.5479 14.2959 86.2744 14.501C86.001 14.7015 85.6729 14.8587 85.29 14.9727C84.9118 15.082 84.4857 15.1367 84.0117 15.1367C83.3236 15.1367 82.7402 15.0137 82.2617 14.7676C81.7878 14.5215 81.4277 14.2093 81.1816 13.8311C80.9401 13.4482 80.8193 13.0563 80.8193 12.6553H82.6855C82.6947 12.9242 82.763 13.1406 82.8906 13.3047C83.0228 13.4688 83.1891 13.5872 83.3896 13.6602C83.5947 13.7331 83.8158 13.7695 84.0527 13.7695C84.3079 13.7695 84.5199 13.7354 84.6885 13.667C84.8571 13.5941 84.9847 13.4984 85.0713 13.3799C85.1624 13.2568 85.208 13.1156 85.208 12.9561ZM51.9443 29H49.7773L49.791 27.4004H51.9443C52.4821 27.4004 52.9355 27.2796 53.3047 27.0381C53.6738 26.792 53.9518 26.4342 54.1387 25.9648C54.3301 25.4954 54.4258 24.9281 54.4258 24.2627V23.7773C54.4258 23.2669 54.3711 22.818 54.2617 22.4307C54.1569 22.0433 53.9997 21.7174 53.79 21.4531C53.5804 21.1888 53.3229 20.9906 53.0176 20.8584C52.7122 20.7217 52.3613 20.6533 51.9648 20.6533H49.7363V19.0469H51.9648C52.6302 19.0469 53.2386 19.1608 53.79 19.3887C54.346 19.612 54.8268 19.9333 55.2324 20.3525C55.638 20.7718 55.9502 21.2731 56.1689 21.8564C56.3923 22.4352 56.5039 23.0801 56.5039 23.791V24.2627C56.5039 24.9691 56.3923 25.6139 56.1689 26.1973C55.9502 26.7806 55.638 27.2819 55.2324 27.7012C54.8314 28.1159 54.3506 28.4372 53.79 28.665C53.234 28.8883 52.6188 29 51.9443 29ZM50.9395 19.0469V29H48.8887V19.0469H50.9395ZM61.2754 29.1367C60.7012 29.1367 60.1862 29.0456 59.7305 28.8633C59.2747 28.6764 58.8874 28.4189 58.5684 28.0908C58.2539 27.7627 58.0124 27.3822 57.8438 26.9492C57.6751 26.5117 57.5908 26.0469 57.5908 25.5547V25.2812C57.5908 24.7207 57.6706 24.208 57.8301 23.7432C57.9896 23.2783 58.2174 22.875 58.5137 22.5332C58.8145 22.1914 59.179 21.9294 59.6074 21.7471C60.0358 21.5602 60.5189 21.4668 61.0566 21.4668C61.5807 21.4668 62.0456 21.5534 62.4512 21.7266C62.8568 21.8997 63.1963 22.1458 63.4697 22.4648C63.7477 22.7839 63.9574 23.1667 64.0986 23.6133C64.2399 24.0553 64.3105 24.5475 64.3105 25.0898V25.9102H58.4316V24.5977H62.376V24.4473C62.376 24.1738 62.3258 23.93 62.2256 23.7158C62.1299 23.4971 61.984 23.3239 61.7881 23.1963C61.5921 23.0687 61.3415 23.0049 61.0361 23.0049C60.7764 23.0049 60.5531 23.0618 60.3662 23.1758C60.1794 23.2897 60.0267 23.4492 59.9082 23.6543C59.7943 23.8594 59.7077 24.1009 59.6484 24.3789C59.5938 24.6523 59.5664 24.9531 59.5664 25.2812V25.5547C59.5664 25.8509 59.6074 26.1243 59.6895 26.375C59.776 26.6257 59.8968 26.8421 60.0518 27.0244C60.2113 27.2067 60.4027 27.348 60.626 27.4482C60.8538 27.5485 61.1113 27.5986 61.3984 27.5986C61.7539 27.5986 62.0843 27.5303 62.3896 27.3936C62.6995 27.2523 62.9661 27.0404 63.1895 26.7578L64.1465 27.7969C63.9915 28.0202 63.7796 28.2344 63.5107 28.4395C63.2464 28.6445 62.9274 28.8132 62.5537 28.9453C62.18 29.0729 61.7539 29.1367 61.2754 29.1367ZM67.5098 18.5V29H65.5342V18.5H67.5098ZM71.2148 21.6035V29H69.2393V21.6035H71.2148ZM69.1162 19.6758C69.1162 19.3887 69.2165 19.1517 69.417 18.9648C69.6175 18.778 69.8864 18.6846 70.2236 18.6846C70.5563 18.6846 70.8229 18.778 71.0234 18.9648C71.2285 19.1517 71.3311 19.3887 71.3311 19.6758C71.3311 19.9629 71.2285 20.1999 71.0234 20.3867C70.8229 20.5736 70.5563 20.667 70.2236 20.667C69.8864 20.667 69.6175 20.5736 69.417 20.3867C69.2165 20.1999 69.1162 19.9629 69.1162 19.6758ZM77.5244 21.6035H79.3086V28.7539C79.3086 29.4284 79.1582 30.0003 78.8574 30.4697C78.5612 30.9437 78.1465 31.3014 77.6133 31.543C77.0801 31.7891 76.4603 31.9121 75.7539 31.9121C75.444 31.9121 75.1159 31.8711 74.7695 31.7891C74.4277 31.707 74.0996 31.5794 73.7852 31.4062C73.4753 31.2331 73.2155 31.0143 73.0059 30.75L73.874 29.5879C74.1019 29.8522 74.3662 30.0573 74.667 30.2031C74.9678 30.3535 75.3005 30.4287 75.665 30.4287C76.0205 30.4287 76.3213 30.3626 76.5674 30.2305C76.8135 30.1029 77.0026 29.9137 77.1348 29.6631C77.2669 29.417 77.333 29.1185 77.333 28.7676V23.3125L77.5244 21.6035ZM72.5479 25.3906V25.2471C72.5479 24.682 72.6162 24.1693 72.7529 23.709C72.8942 23.2441 73.0924 22.8454 73.3477 22.5127C73.6074 22.18 73.9219 21.9225 74.291 21.7402C74.6602 21.5579 75.0771 21.4668 75.542 21.4668C76.0342 21.4668 76.4466 21.5579 76.7793 21.7402C77.112 21.9225 77.3854 22.1823 77.5996 22.5195C77.8138 22.8522 77.9801 23.2464 78.0986 23.7021C78.2217 24.1533 78.3174 24.6478 78.3857 25.1855V25.5C78.3174 26.015 78.2148 26.4935 78.0781 26.9355C77.9414 27.3776 77.7614 27.765 77.5381 28.0977C77.3148 28.4258 77.0368 28.681 76.7041 28.8633C76.376 29.0456 75.984 29.1367 75.5283 29.1367C75.0726 29.1367 74.6602 29.0433 74.291 28.8564C73.9264 28.6696 73.6143 28.4076 73.3545 28.0703C73.0947 27.7331 72.8942 27.3366 72.7529 26.8809C72.6162 26.4251 72.5479 25.9284 72.5479 25.3906ZM74.5166 25.2471V25.3906C74.5166 25.696 74.5462 25.9808 74.6055 26.2451C74.6647 26.5094 74.7559 26.7441 74.8789 26.9492C75.0065 27.1497 75.1637 27.307 75.3506 27.4209C75.542 27.5303 75.7676 27.585 76.0273 27.585C76.3874 27.585 76.6813 27.5098 76.9092 27.3594C77.137 27.2044 77.3079 26.9925 77.4219 26.7236C77.5358 26.4548 77.6019 26.1449 77.6201 25.7939V24.8984C77.611 24.6113 77.5723 24.3538 77.5039 24.126C77.4355 23.8936 77.3398 23.6953 77.2168 23.5312C77.0938 23.3672 76.9342 23.2396 76.7383 23.1484C76.5423 23.0573 76.3099 23.0117 76.041 23.0117C75.7812 23.0117 75.5557 23.071 75.3643 23.1895C75.1774 23.3034 75.0202 23.4606 74.8926 23.6611C74.7695 23.8617 74.6761 24.0986 74.6123 24.3721C74.5485 24.641 74.5166 24.9326 74.5166 25.2471ZM82.7607 18.5V29H80.792V18.5H82.7607ZM82.4805 25.042H81.9404C81.945 24.527 82.0133 24.0531 82.1455 23.6201C82.2777 23.1826 82.4668 22.8044 82.7129 22.4854C82.959 22.1618 83.2529 21.9111 83.5947 21.7334C83.9411 21.5557 84.3239 21.4668 84.7432 21.4668C85.1077 21.4668 85.4382 21.5192 85.7344 21.624C86.0352 21.7243 86.2926 21.8883 86.5068 22.1162C86.7256 22.3395 86.8942 22.6335 87.0127 22.998C87.1312 23.3626 87.1904 23.8047 87.1904 24.3242V29H85.208V24.3105C85.208 23.9824 85.1602 23.7249 85.0645 23.5381C84.9733 23.3467 84.8389 23.2122 84.6611 23.1348C84.488 23.0527 84.2738 23.0117 84.0186 23.0117C83.736 23.0117 83.4945 23.0641 83.2939 23.1689C83.098 23.2738 82.9408 23.4196 82.8223 23.6064C82.7038 23.7887 82.6172 24.0029 82.5625 24.249C82.5078 24.4951 82.4805 24.7594 82.4805 25.042ZM92.3105 21.6035V22.998H88.0039V21.6035H92.3105ZM89.0703 19.7783H91.0391V26.7715C91.0391 26.9857 91.0664 27.1497 91.1211 27.2637C91.1803 27.3776 91.2669 27.4574 91.3809 27.5029C91.4948 27.5439 91.6383 27.5645 91.8115 27.5645C91.9346 27.5645 92.0439 27.5599 92.1396 27.5508C92.2399 27.5371 92.3242 27.5234 92.3926 27.5098L92.3994 28.959C92.2308 29.0137 92.0485 29.057 91.8525 29.0889C91.6566 29.1208 91.4401 29.1367 91.2031 29.1367C90.7702 29.1367 90.3919 29.0661 90.0684 28.9248C89.7493 28.779 89.5033 28.5465 89.3301 28.2275C89.1569 27.9085 89.0703 27.4893 89.0703 26.9697V19.7783Z" fill="#262522"/>
</svg>
